<?xml version="1.0" encoding="UTF-8" standalone="no"?>
<!DOCTYPE svg PUBLIC "-//W3C//DTD SVG 1.1//EN" "http://www.w3.org/Graphics/SVG/1.1/DTD/svg11.dtd">
<svg width="100%" height="100%" viewBox="0 0 512 512" version="1.1" xmlns="http://www.w3.org/2000/svg" xmlns:xlink="http://www.w3.org/1999/xlink" xml:space="preserve" xmlns:serif="http://www.serif.com/" style="fill-rule:evenodd;clip-rule:evenodd;stroke-linejoin:round;stroke-miterlimit:2;">
    <g transform="matrix(1,0,0,1,-3110.747217,-406.295232)">
        <g id="favicon" transform="matrix(0.088165,0,0,0.2048,3110.747217,406.295232)">
            <rect x="0" y="0" width="5807.319" height="2500" style="fill:none;"/>
            <g transform="matrix(11.34242,0,0,4.882812,369.753164,0)">
                <g transform="matrix(1.396412,0,0,-1.396412,-474.805187,981.72654)">
                    <path d="M591.797,506.32C577.805,469.23 541.984,442.848 500,442.848C497.59,442.848 472.66,442.938 470.297,443.109L470.297,488.18C472.641,487.867 497.57,487.688 500,487.688C520.195,487.688 537.766,498.934 546.793,515.504C512.125,526.629 481.352,546.43 457.02,572.355C450.57,563.547 446.754,552.688 446.754,540.934L446.754,347.352L470.168,397.656L487.039,387.918C495.059,383.285 504.941,383.285 512.961,387.918L623.715,451.859C631.734,456.488 636.676,465.047 636.676,474.309L636.676,506.867C628.461,505.902 620.109,505.387 611.633,505.387C604.941,505.387 598.328,505.715 591.797,506.32" style="fill-rule:nonzero;"/>
                </g>
                <g transform="matrix(1.396412,0,0,-1.396412,-474.805187,754.493204)">
                    <path d="M376.285,461.922C368.266,457.289 363.324,448.73 363.324,439.469L363.324,311.582C363.324,302.32 368.266,293.762 376.285,289.133L401.914,274.336L401.914,378.207C401.914,404.652 412.383,428.652 429.398,446.293C422.566,457.758 416.777,469.914 412.18,482.645L376.285,461.922" style="fill-rule:nonzero;"/>
                </g>
                <g transform="matrix(1.396412,0,0,-1.396412,-474.805187,592.26394)">
                    <path d="M623.715,345.746L512.961,409.687C504.941,414.32 495.059,414.32 487.039,409.687L412.18,366.469C416.777,353.738 422.566,341.582 429.398,330.117C447.238,348.613 472.273,360.121 500,360.121C554.172,360.121 598.086,316.203 598.086,262.031C598.086,249.848 595.859,238.184 591.797,227.418C598.328,226.812 604.941,226.484 611.633,226.484C620.109,226.484 628.461,227 636.676,227.965L636.676,323.293C636.676,332.555 631.734,341.113 623.715,345.746" style="fill:rgb(205,0,0);fill-rule:nonzero;"/>
                </g>
                <g transform="matrix(-1.200196,0.71379,-0.71379,-1.200196,1097.262521,284.28501)">
                    <path d="M489.435,309.756C482.038,314.147 475.599,320.397 470.89,328.314C455.857,353.592 464.161,386.268 489.435,401.299C504.607,410.322 522.445,410.927 537.534,404.508C529.873,369.788 513.545,337.039 489.435,309.756" style="fill:rgb(205,0,0);fill-rule:nonzero;"/>
                </g>
            </g>
        </g>
    </g>
</svg>
